<svg xmlns="http://www.w3.org/2000/svg" width="40" height="40" viewBox="0 0 40 40" fill="none">
<g clip-path="url(#clip0_307_69)">
<path d="M0.853595 19.7606C0.852657 23.1213 1.73766 26.4029 3.42047 29.2953L0.692657 39.1778L10.8852 36.526C13.7043 38.0488 16.8629 38.8467 20.0727 38.8469H20.0811C30.6772 38.8469 39.3027 30.2914 39.3072 19.7756C39.3092 14.68 37.3111 9.88832 33.6808 6.28336C30.0511 2.67871 25.2238 0.692511 20.0803 0.690186C9.48297 0.690186 0.858126 9.24522 0.853751 19.7606" fill="url(#paint0_linear_307_69)"/>
<path d="M15.1059 11.4958C14.7331 10.6736 14.3408 10.657 13.9862 10.6426C13.6959 10.6302 13.3641 10.6311 13.0325 10.6311C12.7006 10.6311 12.1614 10.755 11.7056 11.2488C11.2494 11.7431 9.96375 12.9375 9.96375 15.3668C9.96375 17.7962 11.747 20.144 11.9956 20.4738C12.2445 20.8029 15.4383 25.9477 20.4964 27.9269C24.7002 29.5717 25.5556 29.2446 26.468 29.1621C27.3805 29.08 29.4123 27.968 29.8269 26.815C30.2417 25.6621 30.2417 24.6739 30.1173 24.4674C29.993 24.2617 29.6611 24.1381 29.1634 23.8913C28.6656 23.6443 26.2191 22.4497 25.763 22.2849C25.3067 22.1203 24.975 22.0381 24.6431 22.5325C24.3112 23.0262 23.3583 24.1381 23.0678 24.4674C22.7777 24.7975 22.4872 24.8386 21.9897 24.5916C21.4917 24.3438 19.8891 23.8231 17.9877 22.141C16.5083 20.8322 15.5095 19.2159 15.2192 18.7215C14.9289 18.2279 15.1881 17.9603 15.4377 17.7142C15.6612 17.493 15.9355 17.1376 16.1845 16.8494C16.4327 16.561 16.5155 16.3553 16.6814 16.026C16.8475 15.6964 16.7644 15.408 16.6402 15.161C16.5155 14.9141 15.5484 12.4721 15.1059 11.4958Z" fill="#F2F2F2"/>
</g>
<defs>
<linearGradient id="paint0_linear_307_69" x1="1931.42" y1="3849.45" x2="1931.42" y2="0.690186" gradientUnits="userSpaceOnUse">
<stop stop-color="#1FAF38"/>
<stop offset="1" stop-color="#60D669"/>
</linearGradient>
<clipPath id="clip0_307_69">
<rect width="40" height="40" fill="white"/>
</clipPath>
</defs>
</svg>